<svg xmlns="http://www.w3.org/2000/svg" viewBox="0 0 585 790.72174"><defs><style>.a{fill:#112d4d;}.b{fill:none;stroke:#112d4d;stroke-miterlimit:10;stroke-width:71px;}.c,.d{fill:#f2f7fa;}.d{opacity:0.4;isolation:isolate;}.e{fill:#c12d2d;}.f{fill:#39bf2e;}.g{fill:#505bb5;}.h{fill:#747c58;}.i{fill:#999;}.j{fill:#9fa0a6;}.k{fill:gray;}.l{fill:#ccc;}</style></defs><rect class="a" x="60" y="0.00002" width="75" height="316.30435"/><path class="b" d="M60,334.65218H419s28,4,28,28v420"/><rect class="c" x="100" y="330.65219" width="29" height="9"/><rect class="c" x="140" y="330.65219" width="29" height="9"/><rect class="c" x="179" y="330.65219" width="29" height="9"/><rect class="c" x="219" y="330.65219" width="29" height="9"/><rect class="c" x="259" y="330.65219" width="29" height="9"/><rect class="c" x="297" y="330.65219" width="29" height="9"/><rect class="c" x="337" y="330.65219" width="29" height="9"/><rect class="c" x="377" y="330.65219" width="29" height="9"/><rect class="c" x="415" y="330.65219" width="29" height="9"/><rect class="c" x="442" y="355.65218" width="9" height="29"/><rect class="c" x="442" y="394.65218" width="9" height="29"/><rect class="c" x="442" y="433.65218" width="9" height="29"/><rect class="c" x="442" y="472.65218" width="9" height="29"/><rect class="c" x="442" y="511.65218" width="9" height="29"/><rect class="c" x="442" y="550.65218" width="9" height="29"/><rect class="c" x="442" y="589.65218" width="9" height="29"/><rect class="c" x="442" y="628.65218" width="9" height="29"/><rect class="c" x="93.47267" y="289.15218" width="9" height="29"/><rect class="c" x="93.4819" y="249.15219" width="9" height="28.99998"/><rect class="c" x="93.49112" y="209.15219" width="9" height="29"/><rect class="c" x="93.50012" y="170.15219" width="9" height="29"/><rect class="c" x="93.50934" y="130.15219" width="9" height="29"/><rect class="c" x="93.51856" y="90.1522" width="9" height="29"/><rect class="c" x="93.52733" y="52.1522" width="9" height="29"/><polyline class="d" points="80 369.652 97 362.652 94.555 356.946 94 355.652 116 348.652 97 356.652 98 361.652"/><polyline class="d" points="57 240.652 74 233.652 71.555 227.946 71 226.652 93 219.652 74 227.652 75 232.652"/><polyline class="d" points="98 32.652 115 25.652 112.555 19.946 112 18.652 134 11.652 115 19.652 116 24.652"/><polyline class="d" points="328 318.652 345 311.652 342.555 305.946 342 304.652 364 297.652 345 305.652 346 310.652"/><polyline class="d" points="399 370.652 416 363.652 413.555 357.946 413 356.652 435 349.652 416 357.652 417 362.652"/><polyline class="d" points="411 696.652 419.028 689.652 417.873 683.946 417.611 682.652 428 675.652 419.028 683.652 419.5 688.652"/><polyline class="d" points="483 465.652 474.972 458.652 476.127 452.946 476.389 451.652 466 444.652 474.972 452.652 474.5 457.652"/><polyline class="d" points="428 522.652 419.972 515.652 421.127 509.946 421.389 508.652 411 501.652 419.972 509.652 419.5 514.652"/><circle class="e" cx="12.5" cy="349.15218" r="12.5"/><circle class="e" cx="12.5" cy="397.15218" r="12.5"/><circle class="e" cx="12.5" cy="445.15218" r="12.5"/><circle class="e" cx="572.5" cy="650.15218" r="12.5"/><circle class="e" cx="320.5" cy="650.15218" r="12.5"/><circle class="f" cx="547.5" cy="410.15218" r="12.5"/><circle class="f" cx="522.5" cy="650.15218" r="12.5"/><circle class="f" cx="376.5" cy="650.15218" r="12.5"/><circle class="f" cx="345.5" cy="410.15218" r="12.5"/><circle class="f" cx="179.5" cy="410.15218" r="12.5"/><circle class="g" cx="208.5" cy="145.15219" r="12.5"/><circle class="g" cx="337.5" cy="230.15219" r="12.5"/><circle class="g" cx="522.5" cy="762.15218" r="12.5"/><rect class="h" x="411.45938" y="707.01143" width="69.75858" height="83.71033" rx="12"/><rect class="i" x="429.05066" y="720.35652" width="35.18259" height="55.20026" rx="12"/><path class="j" d="M481.3793,709.74111h0A5.62069,5.62069,0,0,1,487,715.36179v6.9565a5.62069,5.62069,0,0,1-5.62069,5.62069h0a5.62073,5.62073,0,0,1-5.62073-5.62073v-6.95642a5.62073,5.62073,0,0,1,5.62073-5.62073Z"/><path class="j" d="M481.3793,729.75881h0A5.62069,5.62069,0,0,1,487,735.37949v6.9565a5.62069,5.62069,0,0,1-5.62069,5.62069h0a5.62073,5.62073,0,0,1-5.62073-5.62073v-6.95642a5.62073,5.62073,0,0,1,5.62073-5.62073Z"/><path class="j" d="M481.3793,770.40077h0A5.62069,5.62069,0,0,1,487,776.02146V782.978a5.6207,5.6207,0,0,1-5.6207,5.6207h0a5.6207,5.6207,0,0,1-5.6207-5.6207V776.0215a5.62073,5.62073,0,0,1,5.62073-5.62073Z"/><path class="j" d="M411.62073,709.74111h0a5.62069,5.62069,0,0,1,5.62069,5.62069v6.9565a5.62069,5.62069,0,0,1-5.62069,5.62069h0A5.62073,5.62073,0,0,1,406,722.31825v-6.95642a5.62073,5.62073,0,0,1,5.62073-5.62073Z"/><path class="j" d="M411.62073,729.75881h0a5.62069,5.62069,0,0,1,5.62069,5.62069v6.9565a5.62069,5.62069,0,0,1-5.62069,5.62069h0A5.62073,5.62073,0,0,1,406,742.336v-6.95642a5.62073,5.62073,0,0,1,5.62073-5.62073Z"/><path class="j" d="M411.62073,749.77651h0a5.62069,5.62069,0,0,1,5.62069,5.62069v6.9565a5.62069,5.62069,0,0,1-5.62069,5.62069h0A5.62073,5.62073,0,0,1,406,762.35365v-6.95642a5.62073,5.62073,0,0,1,5.62073-5.62073Z"/><path class="k" d="M446.642,670.61562h0a2.42641,2.42641,0,0,1,2.42639,2.42639v63.08606a2.42641,2.42641,0,0,1-2.42639,2.42639h0a2.42641,2.42641,0,0,1-2.42639-2.42639V673.042A2.42641,2.42641,0,0,1,446.642,670.61562Z"/><path class="k" d="M445.12546,667.58266h3.033a2.72966,2.72966,0,0,1,2.72967,2.72967h0a2.72966,2.72966,0,0,1-2.72967,2.72968h-3.033a2.72967,2.72967,0,0,1-2.72968-2.72968h0A2.72967,2.72967,0,0,1,445.12546,667.58266Z"/><path class="k" d="M446.642,704.585h0a4.24614,4.24614,0,0,1,4.24615,4.24615v19.41114a4.24614,4.24614,0,0,1-4.24615,4.24615h0a4.24618,4.24618,0,0,1-4.24619-4.24615V708.83119A4.24618,4.24618,0,0,1,446.642,704.585Z"/><rect class="l" x="436.93643" y="727.6357" width="19.4111" height="38.82214" rx="9.70551"/><path class="j" d="M411.62073,770.40077h0a5.62069,5.62069,0,0,1,5.62069,5.62069V782.978a5.6207,5.6207,0,0,1-5.6207,5.6207h0A5.6207,5.6207,0,0,1,406,782.978V776.0215A5.62073,5.62073,0,0,1,411.62073,770.40077Z"/><path class="j" d="M481.3793,749.77651h0A5.62069,5.62069,0,0,1,487,755.39719v6.9565a5.62069,5.62069,0,0,1-5.62069,5.62069h0a5.62073,5.62073,0,0,1-5.62073-5.62073v-6.95642a5.62073,5.62073,0,0,1,5.62073-5.62073Z"/></svg>