<?xml version="1.0" encoding="utf-8"?>
<!-- Generator: Adobe Illustrator 26.0.1, SVG Export Plug-In . SVG Version: 6.00 Build 0)  -->
<svg version="1.1" id="Layer_1" xmlns="http://www.w3.org/2000/svg" xmlns:xlink="http://www.w3.org/1999/xlink" x="0px" y="0px"
	 viewBox="0 0 222.7 270.7" style="enable-background:new 0 0 222.7 270.7;" xml:space="preserve">
<style type="text/css">
	.st0{fill:#EDEDED;}
	.st1{fill:#CECECE;}
	.st2{fill:#CAB192;}
	.st3{fill:#747C58;}
	.st4{fill:#080808;}
	.st5{fill:#54593E;}
	.st6{fill:none;stroke:#000000;stroke-width:0.57;stroke-linecap:round;stroke-miterlimit:10;}
	.st7{fill:none;stroke:#231F20;stroke-width:2.84;stroke-miterlimit:10;}
	.st8{fill:none;stroke:#231F20;stroke-width:2.83;stroke-miterlimit:10;}
	.st9{enable-background:new    ;}
	.st10{fill:#FFFFFF;}
</style>
<circle class="st0" cx="111.3" cy="111.3" r="108.8"/>
<path class="st1" d="M111.3,5c58.5,0,106.3,47.8,106.3,106.3l0,0c0,58.5-47.8,106.3-106.3,106.3l0,0C52.8,217.7,5,169.8,5,111.3l0,0
	C5,52.8,52.8,5,111.3,5L111.3,5 M111.3,0C49.9-0.1,0.1,49.6,0,111.1c0,29.6,11.7,58,32.7,78.9c43.4,43.4,113.9,43.4,157.3,0
	s43.4-113.9,0-157.3l0,0C169.2,11.7,140.9,0,111.3,0z"/>
<polygon class="st2" points="89.2,82.3 83,80.4 77.5,75.4 68.6,75.2 66.8,78.6 66.1,86.5 70.1,89.2 80.9,87.5 "/>
<polygon class="st2" points="76.1,80.7 72.4,77.9 69,77.1 66.9,77.1 67,75.6 70.9,74.7 74.8,74.5 77.5,75.1 "/>
<polygon class="st2" points="83.3,157.4 77,155.5 71.6,150.6 62.7,150.4 60.8,153.7 60.2,161.6 64.2,164.4 75,162.7 "/>
<polygon class="st2" points="70.1,155.8 66.4,153 63,152.3 60.9,152.2 61,150.7 65,149.9 68.8,149.7 71.6,150.2 "/>
<polygon class="st3" points="170.1,131.3 165.2,129.3 157.1,125.8 113,143.9 108.7,150.6 112.7,157.1 155.8,152.2 169.6,138.1 "/>
<polygon class="st3" points="74.4,153.6 82.4,150.8 84.9,147.6 107.4,139.4 121.7,140.8 123.5,150.9 121.9,153.6 119.5,155.6 
	89.2,163.9 85,161.6 78.2,164.1 76.6,155.4 "/>
<path d="M122.4,140.4c1.2,1.2,2.2,2.6,3,4.1c0.2,0.3,0.7,0,0.5-0.3c-0.8-1.5-1.8-3-3-4.2C122.7,139.7,122.3,140.2,122.4,140.4
	L122.4,140.4z"/>
<path d="M93.9,161.5C93.9,161.5,93.7,161.6,93.9,161.5L93.9,161.5l-0.4,0.1l-0.7,0.2c-0.6,0.2-1.2,0.3-1.8,0.5
	c-0.6,0.1-1.1,0.2-1.7,0.3c-0.2,0-0.4,0-0.7,0h-0.1h-0.1h-0.1c0.1,0.1,0,0,0,0c-0.5-0.3-1,0.5-0.5,0.8c0.4,0.2,0.9,0.3,1.3,0.2
	c0.6-0.1,1.3-0.2,1.9-0.3c1.1-0.2,2.2-0.6,3.2-1c0.2-0.1,0.3-0.4,0.2-0.7c0,0,0,0,0,0C94.4,161.5,94.1,161.4,93.9,161.5L93.9,161.5z
	"/>
<path class="st4" d="M145.6,140.9c2.2,2.6,4.5,5.2,6.7,7.8c0.4,0.5,1.1-0.2,0.7-0.7c-2.2-2.6-4.5-5.2-6.7-7.8
	C145.8,139.7,145.2,140.4,145.6,140.9z"/>
<polygon class="st5" points="147.7,148.9 146.8,153.8 114.7,156.8 116.9,150.5 118.1,148.9 117.4,155 123.5,141.6 122.2,153.8 
	129.8,147.1 128.9,153.8 141.9,152.3 "/>
<path d="M122.3,140.2c0.2,1.8,0.3,3.6,0.3,5.4c0.1,1.8-0.2,3.7-0.8,5.4c-0.1,0.3,0.3,0.6,0.5,0.3c0.6-1.7,0.9-3.5,0.8-5.4
	c0-1.9-0.1-3.8-0.3-5.7C122.9,139.8,122.3,139.8,122.3,140.2L122.3,140.2z"/>
<path class="st6" d="M130.2,144.7c0,0-2,7.4-4.6,10.5"/>
<path class="st6" d="M118,148.7c-0.2,2.6-0.9,5.2-1.9,7.6"/>
<line class="st7" x1="70.4" y1="130.5" x2="71.1" y2="102.8"/>
<polyline class="st7" points="64.4,124.1 70.4,130.9 77.7,124.6 "/>
<polyline class="st8" points="65,108.8 70.9,102 78.2,108.4 "/>
<g class="st9">
	<path class="st10" d="M91.5,262.7c-0.2-0.2-0.3-0.4-0.3-0.7v-12c0-4.6-2.3-6.9-6.8-6.9h-7.4c-0.3,0-0.5-0.1-0.7-0.2
		c-0.2-0.2-0.3-0.4-0.3-0.6V241c0-0.3,0.1-0.5,0.3-0.7c0.2-0.2,0.4-0.2,0.7-0.2h7.6c6.8,0,10.2,3.3,10.2,9.8V262
		c0,0.3-0.1,0.5-0.3,0.7c-0.2,0.2-0.4,0.3-0.7,0.3h-1.7C91.9,263,91.6,262.9,91.5,262.7z M76.3,262.7c-0.2-0.2-0.3-0.4-0.3-0.7
		v-13.4c0-0.3,0.1-0.5,0.3-0.7c0.2-0.2,0.4-0.3,0.7-0.3h1.7c0.3,0,0.5,0.1,0.7,0.3c0.2,0.2,0.3,0.4,0.3,0.7V262
		c0,0.3-0.1,0.5-0.3,0.7c-0.2,0.2-0.4,0.3-0.7,0.3h-1.7C76.7,263,76.4,262.9,76.3,262.7z"/>
	<path class="st10" d="M118.9,262.2c0,0.2-0.1,0.4-0.2,0.6s-0.3,0.2-0.6,0.2h-1.8c-0.3,0-0.6-0.1-0.8-0.3s-0.3-0.3-0.3-0.3
		l-9.1-12.8c-1.1,0.8-1.9,1.8-2.3,2.9c-0.4,1.1-0.6,2.4-0.6,3.7v5.9c0,0.3-0.1,0.5-0.3,0.7c-0.2,0.2-0.4,0.3-0.7,0.3h-1.5
		c-0.3,0-0.5-0.1-0.7-0.3c-0.2-0.2-0.3-0.4-0.3-0.7v-6c0-2,0.3-3.7,0.9-5.2c0.6-1.5,1.8-2.8,3.5-4l-3.7-5.2
		c-0.2-0.3-0.3-0.5-0.3-0.8c0-0.2,0.1-0.4,0.2-0.6c0.2-0.2,0.3-0.2,0.6-0.2h1.8c0.4,0,0.8,0.2,1.1,0.7l8.4,11.7
		c1-0.6,1.7-1.1,2.1-1.8c0.4-0.6,0.7-1.2,0.8-1.8c0.1-0.6,0.2-1.4,0.2-2.3V241c0-0.3,0.1-0.5,0.3-0.7c0.2-0.2,0.4-0.3,0.7-0.3h1.6
		c0.3,0,0.5,0.1,0.7,0.3c0.2,0.2,0.3,0.4,0.3,0.7v5.7c0,1.8-0.3,3.4-0.9,4.7c-0.6,1.3-1.9,2.5-3.8,3.6l4.6,6.4
		C118.8,261.6,118.9,261.9,118.9,262.2z"/>
	<path class="st10" d="M126.4,260.9c-1.6-1.7-2.4-4.1-2.4-7.3V241c0-0.3,0.1-0.5,0.3-0.7c0.2-0.2,0.4-0.2,0.7-0.2h1.5
		c0.3,0,0.5,0.1,0.7,0.2c0.2,0.2,0.2,0.4,0.2,0.7v12.3c0,2.2,0.6,3.9,1.7,5.1c1.1,1.2,2.8,1.8,5,1.8c2.2,0,3.8-0.5,4.9-1.6
		s1.6-2.7,1.7-4.9v-1.2v-2.9c-0.1-2.2-0.5-3.8-1.4-4.9c-0.9-1.1-2.1-1.6-3.6-1.6c-0.5,0-1,0.1-1.6,0.3c-0.6,0.2-1.1,0.4-1.5,0.7
		c-0.1,0.1-0.2,0.1-0.4,0.1c-0.2,0-0.4-0.1-0.5-0.2c-0.1-0.1-0.2-0.3-0.2-0.5v-1.2c0-0.3,0-0.6,0.1-0.8c0.1-0.2,0.2-0.3,0.4-0.5
		c0.6-0.4,1.2-0.6,1.8-0.8c0.6-0.2,1.4-0.3,2.4-0.3c2.6,0,4.6,0.8,5.9,2.3c1.3,1.5,2.1,3.8,2.1,7c0,0.3,0,1.1,0,2.4
		c0,1.3,0,2.1,0,2.4c-0.1,3.2-0.9,5.6-2.5,7.1c-1.6,1.6-4.1,2.3-7.5,2.3C130.5,263.4,128,262.5,126.4,260.9z"/>
</g>
<polygon class="st3" points="172.7,82.9 167.8,80.9 159.7,77.4 115.6,95.6 111.3,102.2 115.3,108.7 158.4,103.8 172.2,89.7 "/>
<polygon class="st3" points="80.1,77.8 87.9,80.8 92,80 114.3,88.5 124.2,99 118.9,107.8 116,108.7 112.9,108.7 84.6,95.2 
	82.9,90.7 76.1,88.2 80.5,80.5 "/>
<path d="M125.1,92c1.2,1.2,2.2,2.6,3,4.1c0.2,0.3,0.7,0,0.5-0.3c-0.8-1.5-1.8-3-3-4.2C125.3,91.3,124.9,91.7,125.1,92L125.1,92z"/>
<path d="M89.7,96.4l-0.5-0.2c-0.2-0.1-0.4-0.2-0.6-0.2c-0.6-0.2-1.1-0.5-1.7-0.8c-0.5-0.3-1-0.6-1.5-0.9c-0.2-0.1-0.3-0.2-0.5-0.4
	l-0.1-0.1c-0.1-0.1,0,0,0,0l-0.1-0.1c0-0.1,0,0.1,0,0c-0.1-0.3-0.3-0.4-0.6-0.3c-0.3,0.1-0.4,0.3-0.3,0.6c0.1,0.3,0.3,0.6,0.6,0.8
	c0.4,0.3,0.7,0.6,1.2,0.8c0.9,0.5,1.8,1,2.7,1.4c0.4,0.2,0.8,0.3,1.1,0.4c0.3,0,0.5-0.1,0.6-0.4C90,96.8,89.9,96.6,89.7,96.4
	L89.7,96.4z"/>
<path class="st4" d="M148.2,92.5c2.2,2.6,4.5,5.2,6.7,7.8c0.4,0.5,1.1-0.2,0.7-0.7c-2.2-2.6-4.5-5.2-6.7-7.8
	C148.5,91.3,147.8,92,148.2,92.5z"/>
<polygon class="st5" points="150.3,100.5 149.4,105.4 117.4,108.4 119.5,102.1 120.7,100.6 120,106.6 126.1,93.3 124.9,105.4 
	132.4,98.7 131.6,105.4 144.5,103.9 "/>
<path d="M125,91.8c0.2,1.8,0.3,3.6,0.3,5.4c0.1,1.8-0.2,3.7-0.8,5.4c-0.1,0.3,0.3,0.6,0.5,0.3c0.6-1.7,0.9-3.6,0.8-5.4
	c0-1.9-0.1-3.8-0.3-5.7C125.6,91.5,125,91.5,125,91.8z"/>
<path class="st6" d="M132.9,96.3c0,0-2,7.4-4.6,10.5"/>
<path class="st6" d="M120.6,100.3c-0.2,2.6-0.9,5.2-1.9,7.6"/>
</svg>
